<mxfile host="app.diagrams.net" modified="2023-10-29T19:41:51.143Z" agent="Mozilla/5.0 (Windows NT 10.0; Win64; x64) AppleWebKit/537.36 (KHTML, like Gecko) Chrome/116.0.0.0 Safari/537.36 OPR/102.0.0.0 (Edition Yx GX)" etag="hkP6RPhk3V3yhs8vyp32" version="22.0.8" type="device">
  <diagram name="Страница — 1" id="QpXZ1xcy-4r-vBS7wL05">
    <mxGraphModel dx="1612" dy="837" grid="1" gridSize="10" guides="1" tooltips="1" connect="1" arrows="1" fold="1" page="1" pageScale="1" pageWidth="827" pageHeight="1169" math="0" shadow="0">
      <root>
        <mxCell id="0" />
        <mxCell id="1" parent="0" />
        <mxCell id="2GbZv-P4W4ZcHHJ4Q60G-1" value="Сортировка одежды&lt;br style=&quot;font-size: 10px;&quot;&gt;" style="swimlane;html=1;childLayout=stackLayout;resizeParent=1;resizeParentMax=0;horizontal=0;startSize=20;horizontalStack=0;whiteSpace=wrap;fontSize=10;" parent="1" vertex="1">
          <mxGeometry x="90" y="290" width="760" height="350" as="geometry" />
        </mxCell>
        <mxCell id="2GbZv-P4W4ZcHHJ4Q60G-2" value="Мама Енот&lt;br style=&quot;font-size: 10px;&quot;&gt;" style="swimlane;html=1;startSize=20;horizontal=0;fontSize=10;" parent="2GbZv-P4W4ZcHHJ4Q60G-1" vertex="1">
          <mxGeometry x="20" width="740" height="350" as="geometry" />
        </mxCell>
        <mxCell id="2GbZv-P4W4ZcHHJ4Q60G-7" style="edgeStyle=orthogonalEdgeStyle;rounded=0;orthogonalLoop=1;jettySize=auto;html=1;fontSize=10;" parent="2GbZv-P4W4ZcHHJ4Q60G-2" source="2GbZv-P4W4ZcHHJ4Q60G-5" target="2GbZv-P4W4ZcHHJ4Q60G-6" edge="1">
          <mxGeometry relative="1" as="geometry" />
        </mxCell>
        <mxCell id="2GbZv-P4W4ZcHHJ4Q60G-5" value="Неотсортированная&lt;br style=&quot;font-size: 10px;&quot;&gt;&amp;nbsp;одежда" style="points=[[0.145,0.145,0],[0.5,0,0],[0.855,0.145,0],[1,0.5,0],[0.855,0.855,0],[0.5,1,0],[0.145,0.855,0],[0,0.5,0]];shape=mxgraph.bpmn.event;html=1;verticalLabelPosition=bottom;labelBackgroundColor=#ffffff;verticalAlign=top;align=center;perimeter=ellipsePerimeter;outlineConnect=0;aspect=fixed;outline=standard;symbol=general;fontSize=10;" parent="2GbZv-P4W4ZcHHJ4Q60G-2" vertex="1">
          <mxGeometry x="80" y="150" width="20" height="20" as="geometry" />
        </mxCell>
        <mxCell id="2GbZv-P4W4ZcHHJ4Q60G-6" value="" style="points=[[0.25,0.25,0],[0.5,0,0],[0.75,0.25,0],[1,0.5,0],[0.75,0.75,0],[0.5,1,0],[0.25,0.75,0],[0,0.5,0]];shape=mxgraph.bpmn.gateway2;html=1;verticalLabelPosition=bottom;labelBackgroundColor=#ffffff;verticalAlign=top;align=center;perimeter=rhombusPerimeter;outlineConnect=0;outline=catching;symbol=multiple;fontSize=10;" parent="2GbZv-P4W4ZcHHJ4Q60G-2" vertex="1">
          <mxGeometry x="180" y="145" width="30" height="30" as="geometry" />
        </mxCell>
        <mxCell id="2GbZv-P4W4ZcHHJ4Q60G-8" value="Белая одежда" style="points=[[0.145,0.145,0],[0.5,0,0],[0.855,0.145,0],[1,0.5,0],[0.855,0.855,0],[0.5,1,0],[0.145,0.855,0],[0,0.5,0]];shape=mxgraph.bpmn.event;html=1;verticalLabelPosition=bottom;labelBackgroundColor=#ffffff;verticalAlign=top;align=center;perimeter=ellipsePerimeter;outlineConnect=0;aspect=fixed;outline=catching;symbol=conditional;fontSize=10;" parent="2GbZv-P4W4ZcHHJ4Q60G-2" vertex="1">
          <mxGeometry x="185" y="70" width="20" height="20" as="geometry" />
        </mxCell>
        <mxCell id="2GbZv-P4W4ZcHHJ4Q60G-9" style="edgeStyle=orthogonalEdgeStyle;rounded=0;orthogonalLoop=1;jettySize=auto;html=1;entryX=0.5;entryY=1;entryDx=0;entryDy=0;entryPerimeter=0;fontSize=10;" parent="2GbZv-P4W4ZcHHJ4Q60G-2" source="2GbZv-P4W4ZcHHJ4Q60G-6" target="2GbZv-P4W4ZcHHJ4Q60G-8" edge="1">
          <mxGeometry relative="1" as="geometry" />
        </mxCell>
        <mxCell id="2GbZv-P4W4ZcHHJ4Q60G-10" value="Цветная одежда" style="points=[[0.145,0.145,0],[0.5,0,0],[0.855,0.145,0],[1,0.5,0],[0.855,0.855,0],[0.5,1,0],[0.145,0.855,0],[0,0.5,0]];shape=mxgraph.bpmn.event;html=1;verticalLabelPosition=bottom;labelBackgroundColor=#ffffff;verticalAlign=top;align=center;perimeter=ellipsePerimeter;outlineConnect=0;aspect=fixed;outline=catching;symbol=conditional;fontSize=10;" parent="2GbZv-P4W4ZcHHJ4Q60G-2" vertex="1">
          <mxGeometry x="185" y="230" width="20" height="20" as="geometry" />
        </mxCell>
        <mxCell id="2GbZv-P4W4ZcHHJ4Q60G-11" style="edgeStyle=orthogonalEdgeStyle;rounded=0;orthogonalLoop=1;jettySize=auto;html=1;entryX=0.5;entryY=0;entryDx=0;entryDy=0;entryPerimeter=0;fontSize=10;" parent="2GbZv-P4W4ZcHHJ4Q60G-2" source="2GbZv-P4W4ZcHHJ4Q60G-6" target="2GbZv-P4W4ZcHHJ4Q60G-10" edge="1">
          <mxGeometry relative="1" as="geometry" />
        </mxCell>
        <mxCell id="2GbZv-P4W4ZcHHJ4Q60G-12" value="" style="points=[[0.25,0.25,0],[0.5,0,0],[0.75,0.25,0],[1,0.5,0],[0.75,0.75,0],[0.5,1,0],[0.25,0.75,0],[0,0.5,0]];shape=mxgraph.bpmn.gateway2;html=1;verticalLabelPosition=bottom;labelBackgroundColor=#ffffff;verticalAlign=top;align=center;perimeter=rhombusPerimeter;outlineConnect=0;outline=catching;symbol=multiple;fontSize=10;" parent="2GbZv-P4W4ZcHHJ4Q60G-2" vertex="1">
          <mxGeometry x="270" y="225" width="30" height="30" as="geometry" />
        </mxCell>
        <mxCell id="2GbZv-P4W4ZcHHJ4Q60G-13" value="" style="points=[[0.25,0.25,0],[0.5,0,0],[0.75,0.25,0],[1,0.5,0],[0.75,0.75,0],[0.5,1,0],[0.25,0.75,0],[0,0.5,0]];shape=mxgraph.bpmn.gateway2;html=1;verticalLabelPosition=bottom;labelBackgroundColor=#ffffff;verticalAlign=top;align=center;perimeter=rhombusPerimeter;outlineConnect=0;outline=catching;symbol=multiple;fontSize=10;" parent="2GbZv-P4W4ZcHHJ4Q60G-2" vertex="1">
          <mxGeometry x="270" y="65" width="30" height="30" as="geometry" />
        </mxCell>
        <mxCell id="2GbZv-P4W4ZcHHJ4Q60G-14" style="edgeStyle=orthogonalEdgeStyle;rounded=0;orthogonalLoop=1;jettySize=auto;html=1;entryX=0;entryY=0.5;entryDx=0;entryDy=0;entryPerimeter=0;fontSize=10;" parent="2GbZv-P4W4ZcHHJ4Q60G-2" source="2GbZv-P4W4ZcHHJ4Q60G-8" target="2GbZv-P4W4ZcHHJ4Q60G-13" edge="1">
          <mxGeometry relative="1" as="geometry" />
        </mxCell>
        <mxCell id="2GbZv-P4W4ZcHHJ4Q60G-15" style="edgeStyle=orthogonalEdgeStyle;rounded=0;orthogonalLoop=1;jettySize=auto;html=1;entryX=0;entryY=0.5;entryDx=0;entryDy=0;entryPerimeter=0;fontSize=10;" parent="2GbZv-P4W4ZcHHJ4Q60G-2" source="2GbZv-P4W4ZcHHJ4Q60G-10" target="2GbZv-P4W4ZcHHJ4Q60G-12" edge="1">
          <mxGeometry relative="1" as="geometry" />
        </mxCell>
        <mxCell id="2GbZv-P4W4ZcHHJ4Q60G-29" style="edgeStyle=orthogonalEdgeStyle;rounded=0;orthogonalLoop=1;jettySize=auto;html=1;fontSize=10;" parent="2GbZv-P4W4ZcHHJ4Q60G-2" source="2GbZv-P4W4ZcHHJ4Q60G-16" target="2GbZv-P4W4ZcHHJ4Q60G-26" edge="1">
          <mxGeometry relative="1" as="geometry" />
        </mxCell>
        <mxCell id="2GbZv-P4W4ZcHHJ4Q60G-16" value="Слабозагр." style="points=[[0.145,0.145,0],[0.5,0,0],[0.855,0.145,0],[1,0.5,0],[0.855,0.855,0],[0.5,1,0],[0.145,0.855,0],[0,0.5,0]];shape=mxgraph.bpmn.event;html=1;verticalLabelPosition=bottom;labelBackgroundColor=#ffffff;verticalAlign=top;align=center;perimeter=ellipsePerimeter;outlineConnect=0;aspect=fixed;outline=catching;symbol=conditional;fontSize=10;" parent="2GbZv-P4W4ZcHHJ4Q60G-2" vertex="1">
          <mxGeometry x="340" y="30" width="20" height="20" as="geometry" />
        </mxCell>
        <mxCell id="2GbZv-P4W4ZcHHJ4Q60G-17" value="Сильнозагр." style="points=[[0.145,0.145,0],[0.5,0,0],[0.855,0.145,0],[1,0.5,0],[0.855,0.855,0],[0.5,1,0],[0.145,0.855,0],[0,0.5,0]];shape=mxgraph.bpmn.event;html=1;verticalLabelPosition=bottom;labelBackgroundColor=#ffffff;verticalAlign=top;align=center;perimeter=ellipsePerimeter;outlineConnect=0;aspect=fixed;outline=catching;symbol=conditional;fontSize=10;" parent="2GbZv-P4W4ZcHHJ4Q60G-2" vertex="1">
          <mxGeometry x="340" y="95" width="20" height="20" as="geometry" />
        </mxCell>
        <mxCell id="2GbZv-P4W4ZcHHJ4Q60G-18" value="Слабозагр." style="points=[[0.145,0.145,0],[0.5,0,0],[0.855,0.145,0],[1,0.5,0],[0.855,0.855,0],[0.5,1,0],[0.145,0.855,0],[0,0.5,0]];shape=mxgraph.bpmn.event;html=1;verticalLabelPosition=bottom;labelBackgroundColor=#ffffff;verticalAlign=top;align=center;perimeter=ellipsePerimeter;outlineConnect=0;aspect=fixed;outline=catching;symbol=conditional;fontSize=10;" parent="2GbZv-P4W4ZcHHJ4Q60G-2" vertex="1">
          <mxGeometry x="360" y="190" width="20" height="20" as="geometry" />
        </mxCell>
        <mxCell id="2GbZv-P4W4ZcHHJ4Q60G-19" value="Сильнозагр." style="points=[[0.145,0.145,0],[0.5,0,0],[0.855,0.145,0],[1,0.5,0],[0.855,0.855,0],[0.5,1,0],[0.145,0.855,0],[0,0.5,0]];shape=mxgraph.bpmn.event;html=1;verticalLabelPosition=bottom;labelBackgroundColor=#ffffff;verticalAlign=top;align=center;perimeter=ellipsePerimeter;outlineConnect=0;aspect=fixed;outline=catching;symbol=conditional;fontSize=10;" parent="2GbZv-P4W4ZcHHJ4Q60G-2" vertex="1">
          <mxGeometry x="360" y="255" width="20" height="20" as="geometry" />
        </mxCell>
        <mxCell id="2GbZv-P4W4ZcHHJ4Q60G-20" style="edgeStyle=orthogonalEdgeStyle;rounded=0;orthogonalLoop=1;jettySize=auto;html=1;entryX=0;entryY=0.5;entryDx=0;entryDy=0;entryPerimeter=0;fontSize=10;" parent="2GbZv-P4W4ZcHHJ4Q60G-2" source="2GbZv-P4W4ZcHHJ4Q60G-12" target="2GbZv-P4W4ZcHHJ4Q60G-18" edge="1">
          <mxGeometry relative="1" as="geometry">
            <Array as="points">
              <mxPoint x="320" y="240" />
              <mxPoint x="320" y="200" />
            </Array>
          </mxGeometry>
        </mxCell>
        <mxCell id="2GbZv-P4W4ZcHHJ4Q60G-21" style="edgeStyle=orthogonalEdgeStyle;rounded=0;orthogonalLoop=1;jettySize=auto;html=1;entryX=0;entryY=0.5;entryDx=0;entryDy=0;entryPerimeter=0;fontSize=10;" parent="2GbZv-P4W4ZcHHJ4Q60G-2" source="2GbZv-P4W4ZcHHJ4Q60G-12" target="2GbZv-P4W4ZcHHJ4Q60G-19" edge="1">
          <mxGeometry relative="1" as="geometry">
            <Array as="points">
              <mxPoint x="320" y="240" />
              <mxPoint x="320" y="265" />
            </Array>
          </mxGeometry>
        </mxCell>
        <mxCell id="2GbZv-P4W4ZcHHJ4Q60G-22" style="edgeStyle=orthogonalEdgeStyle;rounded=0;orthogonalLoop=1;jettySize=auto;html=1;exitX=1;exitY=0.5;exitDx=0;exitDy=0;exitPerimeter=0;entryX=0;entryY=0.5;entryDx=0;entryDy=0;entryPerimeter=0;fontSize=10;" parent="2GbZv-P4W4ZcHHJ4Q60G-2" source="2GbZv-P4W4ZcHHJ4Q60G-13" target="2GbZv-P4W4ZcHHJ4Q60G-16" edge="1">
          <mxGeometry relative="1" as="geometry" />
        </mxCell>
        <mxCell id="2GbZv-P4W4ZcHHJ4Q60G-23" style="edgeStyle=orthogonalEdgeStyle;rounded=0;orthogonalLoop=1;jettySize=auto;html=1;entryX=0;entryY=0.5;entryDx=0;entryDy=0;entryPerimeter=0;fontSize=10;" parent="2GbZv-P4W4ZcHHJ4Q60G-2" source="2GbZv-P4W4ZcHHJ4Q60G-13" target="2GbZv-P4W4ZcHHJ4Q60G-17" edge="1">
          <mxGeometry relative="1" as="geometry" />
        </mxCell>
        <mxCell id="2GbZv-P4W4ZcHHJ4Q60G-26" value="Положить в тазик 1" style="points=[[0.25,0,0],[0.5,0,0],[0.75,0,0],[1,0.25,0],[1,0.5,0],[1,0.75,0],[0.75,1,0],[0.5,1,0],[0.25,1,0],[0,0.75,0],[0,0.5,0],[0,0.25,0]];shape=mxgraph.bpmn.task;whiteSpace=wrap;rectStyle=rounded;size=10;html=1;container=1;expand=0;collapsible=0;taskMarker=manual;fontSize=10;" parent="2GbZv-P4W4ZcHHJ4Q60G-2" vertex="1">
          <mxGeometry x="410" y="20" width="140" height="40" as="geometry" />
        </mxCell>
        <mxCell id="2GbZv-P4W4ZcHHJ4Q60G-27" value="Положить в тазик 2" style="points=[[0.25,0,0],[0.5,0,0],[0.75,0,0],[1,0.25,0],[1,0.5,0],[1,0.75,0],[0.75,1,0],[0.5,1,0],[0.25,1,0],[0,0.75,0],[0,0.5,0],[0,0.25,0]];shape=mxgraph.bpmn.task;whiteSpace=wrap;rectStyle=rounded;size=10;html=1;container=1;expand=0;collapsible=0;taskMarker=manual;fontSize=10;" parent="2GbZv-P4W4ZcHHJ4Q60G-2" vertex="1">
          <mxGeometry x="410" y="85" width="140" height="40" as="geometry" />
        </mxCell>
        <mxCell id="2GbZv-P4W4ZcHHJ4Q60G-28" style="edgeStyle=orthogonalEdgeStyle;rounded=0;orthogonalLoop=1;jettySize=auto;html=1;entryX=0;entryY=0.5;entryDx=0;entryDy=0;entryPerimeter=0;fontSize=10;" parent="2GbZv-P4W4ZcHHJ4Q60G-2" source="2GbZv-P4W4ZcHHJ4Q60G-17" target="2GbZv-P4W4ZcHHJ4Q60G-27" edge="1">
          <mxGeometry relative="1" as="geometry" />
        </mxCell>
        <mxCell id="2GbZv-P4W4ZcHHJ4Q60G-30" value="Положить в тазик 3" style="points=[[0.25,0,0],[0.5,0,0],[0.75,0,0],[1,0.25,0],[1,0.5,0],[1,0.75,0],[0.75,1,0],[0.5,1,0],[0.25,1,0],[0,0.75,0],[0,0.5,0],[0,0.25,0]];shape=mxgraph.bpmn.task;whiteSpace=wrap;rectStyle=rounded;size=10;html=1;container=1;expand=0;collapsible=0;taskMarker=manual;fontSize=10;" parent="2GbZv-P4W4ZcHHJ4Q60G-2" vertex="1">
          <mxGeometry x="410" y="180" width="140" height="40" as="geometry" />
        </mxCell>
        <mxCell id="2GbZv-P4W4ZcHHJ4Q60G-31" value="Положить в тазик 4" style="points=[[0.25,0,0],[0.5,0,0],[0.75,0,0],[1,0.25,0],[1,0.5,0],[1,0.75,0],[0.75,1,0],[0.5,1,0],[0.25,1,0],[0,0.75,0],[0,0.5,0],[0,0.25,0]];shape=mxgraph.bpmn.task;whiteSpace=wrap;rectStyle=rounded;size=10;html=1;container=1;expand=0;collapsible=0;taskMarker=manual;fontSize=10;" parent="2GbZv-P4W4ZcHHJ4Q60G-2" vertex="1">
          <mxGeometry x="410" y="245" width="140" height="40" as="geometry" />
        </mxCell>
        <mxCell id="2GbZv-P4W4ZcHHJ4Q60G-32" style="edgeStyle=orthogonalEdgeStyle;rounded=0;orthogonalLoop=1;jettySize=auto;html=1;exitX=1;exitY=0.5;exitDx=0;exitDy=0;exitPerimeter=0;entryX=0;entryY=0.5;entryDx=0;entryDy=0;entryPerimeter=0;fontSize=10;" parent="2GbZv-P4W4ZcHHJ4Q60G-2" source="2GbZv-P4W4ZcHHJ4Q60G-18" target="2GbZv-P4W4ZcHHJ4Q60G-30" edge="1">
          <mxGeometry relative="1" as="geometry" />
        </mxCell>
        <mxCell id="2GbZv-P4W4ZcHHJ4Q60G-33" style="edgeStyle=orthogonalEdgeStyle;rounded=0;orthogonalLoop=1;jettySize=auto;html=1;exitX=1;exitY=0.5;exitDx=0;exitDy=0;exitPerimeter=0;entryX=0;entryY=0.5;entryDx=0;entryDy=0;entryPerimeter=0;fontSize=10;" parent="2GbZv-P4W4ZcHHJ4Q60G-2" source="2GbZv-P4W4ZcHHJ4Q60G-19" target="2GbZv-P4W4ZcHHJ4Q60G-31" edge="1">
          <mxGeometry relative="1" as="geometry" />
        </mxCell>
        <mxCell id="2GbZv-P4W4ZcHHJ4Q60G-34" value="" style="points=[[0.25,0.25,0],[0.5,0,0],[0.75,0.25,0],[1,0.5,0],[0.75,0.75,0],[0.5,1,0],[0.25,0.75,0],[0,0.5,0]];shape=mxgraph.bpmn.gateway2;html=1;verticalLabelPosition=bottom;labelBackgroundColor=#ffffff;verticalAlign=top;align=center;perimeter=rhombusPerimeter;outlineConnect=0;outline=none;symbol=none;fontSize=10;" parent="2GbZv-P4W4ZcHHJ4Q60G-2" vertex="1">
          <mxGeometry x="590" y="185" width="30" height="30" as="geometry" />
        </mxCell>
        <mxCell id="2GbZv-P4W4ZcHHJ4Q60G-35" style="edgeStyle=orthogonalEdgeStyle;rounded=0;orthogonalLoop=1;jettySize=auto;html=1;entryX=0.5;entryY=1;entryDx=0;entryDy=0;entryPerimeter=0;fontSize=10;" parent="2GbZv-P4W4ZcHHJ4Q60G-2" source="2GbZv-P4W4ZcHHJ4Q60G-31" target="2GbZv-P4W4ZcHHJ4Q60G-34" edge="1">
          <mxGeometry relative="1" as="geometry" />
        </mxCell>
        <mxCell id="2GbZv-P4W4ZcHHJ4Q60G-36" style="edgeStyle=orthogonalEdgeStyle;rounded=0;orthogonalLoop=1;jettySize=auto;html=1;entryX=0;entryY=0.5;entryDx=0;entryDy=0;entryPerimeter=0;fontSize=10;" parent="2GbZv-P4W4ZcHHJ4Q60G-2" source="2GbZv-P4W4ZcHHJ4Q60G-30" target="2GbZv-P4W4ZcHHJ4Q60G-34" edge="1">
          <mxGeometry relative="1" as="geometry" />
        </mxCell>
        <mxCell id="2GbZv-P4W4ZcHHJ4Q60G-37" value="" style="points=[[0.25,0.25,0],[0.5,0,0],[0.75,0.25,0],[1,0.5,0],[0.75,0.75,0],[0.5,1,0],[0.25,0.75,0],[0,0.5,0]];shape=mxgraph.bpmn.gateway2;html=1;verticalLabelPosition=bottom;labelBackgroundColor=#ffffff;verticalAlign=top;align=center;perimeter=rhombusPerimeter;outlineConnect=0;outline=none;symbol=none;fontSize=10;" parent="2GbZv-P4W4ZcHHJ4Q60G-2" vertex="1">
          <mxGeometry x="590" y="90" width="30" height="30" as="geometry" />
        </mxCell>
        <mxCell id="2GbZv-P4W4ZcHHJ4Q60G-38" style="edgeStyle=orthogonalEdgeStyle;rounded=0;orthogonalLoop=1;jettySize=auto;html=1;entryX=0.5;entryY=0;entryDx=0;entryDy=0;entryPerimeter=0;fontSize=10;" parent="2GbZv-P4W4ZcHHJ4Q60G-2" source="2GbZv-P4W4ZcHHJ4Q60G-26" target="2GbZv-P4W4ZcHHJ4Q60G-37" edge="1">
          <mxGeometry relative="1" as="geometry">
            <Array as="points">
              <mxPoint x="605" y="40" />
            </Array>
          </mxGeometry>
        </mxCell>
        <mxCell id="2GbZv-P4W4ZcHHJ4Q60G-39" style="edgeStyle=orthogonalEdgeStyle;rounded=0;orthogonalLoop=1;jettySize=auto;html=1;entryX=0;entryY=0.5;entryDx=0;entryDy=0;entryPerimeter=0;fontSize=10;" parent="2GbZv-P4W4ZcHHJ4Q60G-2" source="2GbZv-P4W4ZcHHJ4Q60G-27" target="2GbZv-P4W4ZcHHJ4Q60G-37" edge="1">
          <mxGeometry relative="1" as="geometry" />
        </mxCell>
        <mxCell id="2GbZv-P4W4ZcHHJ4Q60G-40" value="" style="points=[[0.25,0.25,0],[0.5,0,0],[0.75,0.25,0],[1,0.5,0],[0.75,0.75,0],[0.5,1,0],[0.25,0.75,0],[0,0.5,0]];shape=mxgraph.bpmn.gateway2;html=1;verticalLabelPosition=bottom;labelBackgroundColor=#ffffff;verticalAlign=top;align=center;perimeter=rhombusPerimeter;outlineConnect=0;outline=none;symbol=none;fontSize=10;" parent="2GbZv-P4W4ZcHHJ4Q60G-2" vertex="1">
          <mxGeometry x="590" y="140" width="30" height="30" as="geometry" />
        </mxCell>
        <mxCell id="2GbZv-P4W4ZcHHJ4Q60G-41" style="edgeStyle=orthogonalEdgeStyle;rounded=0;orthogonalLoop=1;jettySize=auto;html=1;exitX=0.5;exitY=1;exitDx=0;exitDy=0;exitPerimeter=0;entryX=0.5;entryY=0;entryDx=0;entryDy=0;entryPerimeter=0;fontSize=10;" parent="2GbZv-P4W4ZcHHJ4Q60G-2" source="2GbZv-P4W4ZcHHJ4Q60G-37" target="2GbZv-P4W4ZcHHJ4Q60G-40" edge="1">
          <mxGeometry relative="1" as="geometry" />
        </mxCell>
        <mxCell id="2GbZv-P4W4ZcHHJ4Q60G-42" style="edgeStyle=orthogonalEdgeStyle;rounded=0;orthogonalLoop=1;jettySize=auto;html=1;exitX=0.5;exitY=0;exitDx=0;exitDy=0;exitPerimeter=0;entryX=0.5;entryY=1;entryDx=0;entryDy=0;entryPerimeter=0;fontSize=10;" parent="2GbZv-P4W4ZcHHJ4Q60G-2" source="2GbZv-P4W4ZcHHJ4Q60G-34" target="2GbZv-P4W4ZcHHJ4Q60G-40" edge="1">
          <mxGeometry relative="1" as="geometry" />
        </mxCell>
        <mxCell id="2GbZv-P4W4ZcHHJ4Q60G-43" value="Одежда&amp;nbsp;&lt;br style=&quot;font-size: 10px;&quot;&gt;отсортирована" style="points=[[0.145,0.145,0],[0.5,0,0],[0.855,0.145,0],[1,0.5,0],[0.855,0.855,0],[0.5,1,0],[0.145,0.855,0],[0,0.5,0]];shape=mxgraph.bpmn.event;html=1;verticalLabelPosition=bottom;labelBackgroundColor=#ffffff;verticalAlign=top;align=center;perimeter=ellipsePerimeter;outlineConnect=0;aspect=fixed;outline=end;symbol=terminate2;fontSize=10;" parent="2GbZv-P4W4ZcHHJ4Q60G-2" vertex="1">
          <mxGeometry x="670" y="142.5" width="25" height="25" as="geometry" />
        </mxCell>
        <mxCell id="2GbZv-P4W4ZcHHJ4Q60G-44" style="edgeStyle=orthogonalEdgeStyle;rounded=0;orthogonalLoop=1;jettySize=auto;html=1;entryX=0;entryY=0.5;entryDx=0;entryDy=0;entryPerimeter=0;fontSize=10;" parent="2GbZv-P4W4ZcHHJ4Q60G-2" source="2GbZv-P4W4ZcHHJ4Q60G-40" target="2GbZv-P4W4ZcHHJ4Q60G-43" edge="1">
          <mxGeometry relative="1" as="geometry" />
        </mxCell>
        <mxCell id="2GbZv-P4W4ZcHHJ4Q60G-45" value="Стирка одежды&lt;br style=&quot;font-size: 10px;&quot;&gt;" style="swimlane;html=1;childLayout=stackLayout;resizeParent=1;resizeParentMax=0;horizontal=0;startSize=20;horizontalStack=0;whiteSpace=wrap;fontSize=10;" parent="1" vertex="1">
          <mxGeometry x="90" y="710" width="1261.25" height="240" as="geometry" />
        </mxCell>
        <mxCell id="2GbZv-P4W4ZcHHJ4Q60G-46" value="Мама Енот&lt;br style=&quot;font-size: 10px;&quot;&gt;" style="swimlane;html=1;startSize=20;horizontal=0;fontSize=10;" parent="2GbZv-P4W4ZcHHJ4Q60G-45" vertex="1">
          <mxGeometry x="20" width="1241.25" height="120" as="geometry" />
        </mxCell>
        <mxCell id="2GbZv-P4W4ZcHHJ4Q60G-49" value="Sorted нестиранная&lt;br style=&quot;font-size: 10px;&quot;&gt;одежда" style="points=[[0.145,0.145,0],[0.5,0,0],[0.855,0.145,0],[1,0.5,0],[0.855,0.855,0],[0.5,1,0],[0.145,0.855,0],[0,0.5,0]];shape=mxgraph.bpmn.event;html=1;verticalLabelPosition=bottom;labelBackgroundColor=#ffffff;verticalAlign=top;align=center;perimeter=ellipsePerimeter;outlineConnect=0;aspect=fixed;outline=standard;symbol=general;fontSize=10;" parent="2GbZv-P4W4ZcHHJ4Q60G-46" vertex="1">
          <mxGeometry x="70" y="40" width="20" height="20" as="geometry" />
        </mxCell>
        <mxCell id="2GbZv-P4W4ZcHHJ4Q60G-50" value="Положить одежду в барабан" style="points=[[0.25,0,0],[0.5,0,0],[0.75,0,0],[1,0.25,0],[1,0.5,0],[1,0.75,0],[0.75,1,0],[0.5,1,0],[0.25,1,0],[0,0.75,0],[0,0.5,0],[0,0.25,0]];shape=mxgraph.bpmn.task;whiteSpace=wrap;rectStyle=rounded;size=10;html=1;container=1;expand=0;collapsible=0;taskMarker=manual;fontSize=10;" parent="2GbZv-P4W4ZcHHJ4Q60G-46" vertex="1">
          <mxGeometry x="140" y="25" width="120" height="50" as="geometry" />
        </mxCell>
        <mxCell id="2GbZv-P4W4ZcHHJ4Q60G-51" style="edgeStyle=orthogonalEdgeStyle;rounded=0;orthogonalLoop=1;jettySize=auto;html=1;entryX=0;entryY=0.5;entryDx=0;entryDy=0;entryPerimeter=0;fontSize=10;" parent="2GbZv-P4W4ZcHHJ4Q60G-46" source="2GbZv-P4W4ZcHHJ4Q60G-49" target="2GbZv-P4W4ZcHHJ4Q60G-50" edge="1">
          <mxGeometry relative="1" as="geometry" />
        </mxCell>
        <mxCell id="2GbZv-P4W4ZcHHJ4Q60G-53" style="edgeStyle=orthogonalEdgeStyle;rounded=0;orthogonalLoop=1;jettySize=auto;html=1;entryX=0;entryY=0.5;entryDx=0;entryDy=0;entryPerimeter=0;" parent="2GbZv-P4W4ZcHHJ4Q60G-46" source="2GbZv-P4W4ZcHHJ4Q60G-50" edge="1">
          <mxGeometry relative="1" as="geometry">
            <mxPoint x="290" y="50" as="targetPoint" />
          </mxGeometry>
        </mxCell>
        <mxCell id="2GbZv-P4W4ZcHHJ4Q60G-57" style="edgeStyle=orthogonalEdgeStyle;rounded=0;orthogonalLoop=1;jettySize=auto;html=1;" parent="2GbZv-P4W4ZcHHJ4Q60G-46" source="2GbZv-P4W4ZcHHJ4Q60G-54" target="2GbZv-P4W4ZcHHJ4Q60G-56" edge="1">
          <mxGeometry relative="1" as="geometry" />
        </mxCell>
        <mxCell id="2GbZv-P4W4ZcHHJ4Q60G-54" value="Добавить порошок" style="points=[[0.25,0,0],[0.5,0,0],[0.75,0,0],[1,0.25,0],[1,0.5,0],[1,0.75,0],[0.75,1,0],[0.5,1,0],[0.25,1,0],[0,0.75,0],[0,0.5,0],[0,0.25,0]];shape=mxgraph.bpmn.task;whiteSpace=wrap;rectStyle=rounded;size=10;html=1;container=1;expand=0;collapsible=0;taskMarker=manual;fontSize=10;" parent="2GbZv-P4W4ZcHHJ4Q60G-46" vertex="1">
          <mxGeometry x="400" y="25" width="120" height="50" as="geometry" />
        </mxCell>
        <mxCell id="2GbZv-P4W4ZcHHJ4Q60G-55" style="edgeStyle=orthogonalEdgeStyle;rounded=0;orthogonalLoop=1;jettySize=auto;html=1;entryX=0;entryY=0.5;entryDx=0;entryDy=0;entryPerimeter=0;" parent="2GbZv-P4W4ZcHHJ4Q60G-46" target="2GbZv-P4W4ZcHHJ4Q60G-54" edge="1">
          <mxGeometry relative="1" as="geometry">
            <mxPoint x="370" y="50" as="sourcePoint" />
          </mxGeometry>
        </mxCell>
        <mxCell id="2GbZv-P4W4ZcHHJ4Q60G-60" style="edgeStyle=orthogonalEdgeStyle;rounded=0;orthogonalLoop=1;jettySize=auto;html=1;" parent="2GbZv-P4W4ZcHHJ4Q60G-46" source="2GbZv-P4W4ZcHHJ4Q60G-56" target="2GbZv-P4W4ZcHHJ4Q60G-59" edge="1">
          <mxGeometry relative="1" as="geometry" />
        </mxCell>
        <mxCell id="2GbZv-P4W4ZcHHJ4Q60G-56" value="Налить кондиционер" style="points=[[0.25,0,0],[0.5,0,0],[0.75,0,0],[1,0.25,0],[1,0.5,0],[1,0.75,0],[0.75,1,0],[0.5,1,0],[0.25,1,0],[0,0.75,0],[0,0.5,0],[0,0.25,0]];shape=mxgraph.bpmn.task;whiteSpace=wrap;rectStyle=rounded;size=10;html=1;container=1;expand=0;collapsible=0;taskMarker=manual;fontSize=10;" parent="2GbZv-P4W4ZcHHJ4Q60G-46" vertex="1">
          <mxGeometry x="540" y="25" width="120" height="50" as="geometry" />
        </mxCell>
        <mxCell id="2GbZv-P4W4ZcHHJ4Q60G-59" value="&lt;font style=&quot;font-size: 10px;&quot;&gt;Запустить&lt;font style=&quot;font-size: 10px;&quot;&gt; &lt;/font&gt;программу&lt;/font&gt;" style="points=[[0.25,0,0],[0.5,0,0],[0.75,0,0],[1,0.25,0],[1,0.5,0],[1,0.75,0],[0.75,1,0],[0.5,1,0],[0.25,1,0],[0,0.75,0],[0,0.5,0],[0,0.25,0]];shape=mxgraph.bpmn.task;whiteSpace=wrap;rectStyle=rounded;size=10;html=1;container=1;expand=0;collapsible=0;taskMarker=user;" parent="2GbZv-P4W4ZcHHJ4Q60G-46" vertex="1">
          <mxGeometry x="700" y="22" width="115" height="55" as="geometry" />
        </mxCell>
        <mxCell id="2GbZv-P4W4ZcHHJ4Q60G-61" value="Стирка&amp;nbsp;&lt;br&gt;закончена" style="points=[[0.145,0.145,0],[0.5,0,0],[0.855,0.145,0],[1,0.5,0],[0.855,0.855,0],[0.5,1,0],[0.145,0.855,0],[0,0.5,0]];shape=mxgraph.bpmn.event;html=1;verticalLabelPosition=bottom;labelBackgroundColor=#ffffff;verticalAlign=top;align=center;perimeter=ellipsePerimeter;outlineConnect=0;aspect=fixed;outline=standard;symbol=timer;" parent="2GbZv-P4W4ZcHHJ4Q60G-46" vertex="1">
          <mxGeometry x="870" y="37.5" width="25" height="25" as="geometry" />
        </mxCell>
        <mxCell id="2GbZv-P4W4ZcHHJ4Q60G-62" style="edgeStyle=orthogonalEdgeStyle;rounded=0;orthogonalLoop=1;jettySize=auto;html=1;entryX=0;entryY=0.5;entryDx=0;entryDy=0;entryPerimeter=0;" parent="2GbZv-P4W4ZcHHJ4Q60G-46" source="2GbZv-P4W4ZcHHJ4Q60G-59" target="2GbZv-P4W4ZcHHJ4Q60G-61" edge="1">
          <mxGeometry relative="1" as="geometry" />
        </mxCell>
        <mxCell id="2GbZv-P4W4ZcHHJ4Q60G-68" value="&lt;span style=&quot;font-size: 10px;&quot;&gt;Выставить программу&lt;/span&gt;" style="points=[[0.25,0,0],[0.5,0,0],[0.75,0,0],[1,0.25,0],[1,0.5,0],[1,0.75,0],[0.75,1,0],[0.5,1,0],[0.25,1,0],[0,0.75,0],[0,0.5,0],[0,0.25,0]];shape=mxgraph.bpmn.task;whiteSpace=wrap;rectStyle=rounded;size=10;html=1;container=1;expand=0;collapsible=0;taskMarker=user;" parent="2GbZv-P4W4ZcHHJ4Q60G-46" vertex="1">
          <mxGeometry x="290" y="22" width="80" height="55" as="geometry" />
        </mxCell>
        <mxCell id="2GbZv-P4W4ZcHHJ4Q60G-48" value="Крошка Енот" style="swimlane;html=1;startSize=20;horizontal=0;fontSize=10;" parent="2GbZv-P4W4ZcHHJ4Q60G-45" vertex="1">
          <mxGeometry x="20" y="120" width="1241.25" height="120" as="geometry" />
        </mxCell>
        <mxCell id="2GbZv-P4W4ZcHHJ4Q60G-63" value="Достать одежду" style="points=[[0.25,0,0],[0.5,0,0],[0.75,0,0],[1,0.25,0],[1,0.5,0],[1,0.75,0],[0.75,1,0],[0.5,1,0],[0.25,1,0],[0,0.75,0],[0,0.5,0],[0,0.25,0]];shape=mxgraph.bpmn.task;whiteSpace=wrap;rectStyle=rounded;size=10;html=1;container=1;expand=0;collapsible=0;taskMarker=manual;fontSize=10;" parent="2GbZv-P4W4ZcHHJ4Q60G-48" vertex="1">
          <mxGeometry x="828.75" y="30" width="107.5" height="50" as="geometry" />
        </mxCell>
        <mxCell id="FskhN8-11FtAqAKkS-RL-2" value="" style="edgeStyle=orthogonalEdgeStyle;rounded=0;orthogonalLoop=1;jettySize=auto;html=1;" edge="1" parent="2GbZv-P4W4ZcHHJ4Q60G-48" source="2GbZv-P4W4ZcHHJ4Q60G-66">
          <mxGeometry relative="1" as="geometry">
            <mxPoint x="1161.25" y="55" as="targetPoint" />
          </mxGeometry>
        </mxCell>
        <mxCell id="2GbZv-P4W4ZcHHJ4Q60G-66" value="Развесить" style="points=[[0.25,0,0],[0.5,0,0],[0.75,0,0],[1,0.25,0],[1,0.5,0],[1,0.75,0],[0.75,1,0],[0.5,1,0],[0.25,1,0],[0,0.75,0],[0,0.5,0],[0,0.25,0]];shape=mxgraph.bpmn.task;whiteSpace=wrap;rectStyle=rounded;size=10;html=1;container=1;expand=0;collapsible=0;taskMarker=manual;fontSize=10;" parent="2GbZv-P4W4ZcHHJ4Q60G-48" vertex="1">
          <mxGeometry x="960" y="30" width="107.5" height="50" as="geometry" />
        </mxCell>
        <mxCell id="2GbZv-P4W4ZcHHJ4Q60G-67" style="edgeStyle=orthogonalEdgeStyle;rounded=0;orthogonalLoop=1;jettySize=auto;html=1;entryX=0;entryY=0.5;entryDx=0;entryDy=0;entryPerimeter=0;" parent="2GbZv-P4W4ZcHHJ4Q60G-48" source="2GbZv-P4W4ZcHHJ4Q60G-63" target="2GbZv-P4W4ZcHHJ4Q60G-66" edge="1">
          <mxGeometry relative="1" as="geometry" />
        </mxCell>
        <mxCell id="FskhN8-11FtAqAKkS-RL-3" value="Тазик выстиран" style="points=[[0.145,0.145,0],[0.5,0,0],[0.855,0.145,0],[1,0.5,0],[0.855,0.855,0],[0.5,1,0],[0.145,0.855,0],[0,0.5,0]];shape=mxgraph.bpmn.event;html=1;verticalLabelPosition=bottom;labelBackgroundColor=#ffffff;verticalAlign=top;align=center;perimeter=ellipsePerimeter;outlineConnect=0;aspect=fixed;outline=end;symbol=terminate2;" vertex="1" parent="2GbZv-P4W4ZcHHJ4Q60G-48">
          <mxGeometry x="1160" y="40" width="30" height="30" as="geometry" />
        </mxCell>
        <mxCell id="2GbZv-P4W4ZcHHJ4Q60G-64" style="edgeStyle=orthogonalEdgeStyle;rounded=0;orthogonalLoop=1;jettySize=auto;html=1;entryX=0.5;entryY=0;entryDx=0;entryDy=0;entryPerimeter=0;" parent="2GbZv-P4W4ZcHHJ4Q60G-45" source="2GbZv-P4W4ZcHHJ4Q60G-61" target="2GbZv-P4W4ZcHHJ4Q60G-63" edge="1">
          <mxGeometry relative="1" as="geometry" />
        </mxCell>
      </root>
    </mxGraphModel>
  </diagram>
</mxfile>
